@startuml
'skinparam monochrome true
skinparam packageStyle rectangle
skinparam shadowing false
'skinparam linetype ortho
left to right direction
'skinparam classAttributeIconSize 0
hide circle
hide methods
'---------File styling---------
skinparam class {
    BackgroundColor PeachPuff
    ArrowColor RoyalBlue
    BorderColor RoyalBlue
}
'------------|Actors|----------------
'|Users|
class User {
    - name
    - citizenCardNumber
    - taxNumber
    - email
    - phoneNumber
    - password
}
'|Employees|
class Employee {
    - agencyDesignation
}
class Agent{

}
class "Agency Manager" as AM{

}

class "System Administrator" as SA{

}
class "Network Manager" as NM{

}
'|Clients|
class "Property Owner" as PO {

}

class Property{
    - type
    - area 
    - location
    - distanceFromCityCenter
    - photographs

}
class Home {
    - numberOfbedrooms
    - numberOfbathrooms
    - numberOfParkingSpace
    - availableEquipment
}
class Land{

}
class Apartment{

}
class House{
    - basement
    - inhabitableLoft
    - sunExposure
}
class Anouncement{
    - state   
    - price 
}
class Agency{
    - id 
    - designation
    - phoneNumber
    - email
}
class Visit{

}
class Commission {
    -type
    -value
}

class Prediction {
    -value
}

class Order {

}
class Address{
    -street 
    -city 
    -state 
    -zipcode
}
class Lease{
    -contractDuration
}
class Sale{

}
'-------------------connections------------------
'Property Owner
PO "1" -- "1..*" Anouncement : Order >
'Anouncement
Anouncement "1" -- "1" Property : has >
Anouncement "1" -- "1" Agent : send to >

'Agency
Agency "1" -- "1..*" Agent : has >
Agency "1" -- "1" AM : has > 
Agency "1" -- "1" Address : has >

'System Administrator
SA "1" -- "*" Employee : register >
SA "1" -- "*" Agency : register >

'Agent
Commission "1" -- "1" Anouncement : has <
Agent "1" -- "1..*" Commission : set >
Agent "1" -- "1..*" Visit : confirm >
Agent "1" -- "*" Anouncement : publishes >
Agent "1" -- "*" Prediction : makes >
Agent "1" -- "*" Order : send to  <


'Employee
Employee "1" -- "*" Agent : can be >
Employee "1" -- "*" AM : can be  >
Employee "1" -- "*" NM : can be >
Employee "1" -- "*" SA : can be >

'User
User "1" -- "*" PO : can be >
User "1" -- "1" Client : can be >
User "1" -- "1,0" Address : has >
'Agency Manager
AM "1" -- "1" Agency : manage >

'Network Manager
NM "1" -- "1..*" Agency : manage >

'Client
Client "1" -- "1" Visit : schedule >
Client "1" -- "*" Anouncement : see >
Client "1" -- "1..*" Order : request >

'Property
Property "1" -- "*" Visit : has >
Property "1" -- "1" Address : has >

'Visit
Visit "1" -- "1" Prediction : has >

'Anouncement
Anouncement "1" -- "1" Sale : can be >
Anouncement "1" -- "1" Lease : can be >
Anouncement "1" -- "1" Order : has <
'--------------------heritage--------------------
.Property <|-- .Land : is a 
.Property <|-- .Home : is a
.Home <|-- .Apartment : is a
.Home <|-- .House : is a

.User <|-- .Employee : is a

@enduml