@startuml
'skinparam monochrome true
skinparam packageStyle rectangle
skinparam shadowing false
'skinparam linetype ortho
left to right direction
'skinparam classAttributeIconSize 0
hide circle
hide methods
'---------File styling---------
skinparam class {
    BackgroundColor PeachPuff
    ArrowColor RoyalBlue
    BorderColor RoyalBlue
}
'------------|Actors|----------------
'|Persons|
class Person {
    - name
    - passportNumber
    - taxNumber
    - email
    - phoneNumber
    - password
}
'|Employees|
class Employee {
    - agencyDesignation
}
class Agent{

}
class "Agency Manager" as AM{

}

class "System Administrator" as SA{

}
class "Network Manager" as NM{

}
'|Clients|
class "Property Owner" as PO {

}

class Property{
    - type
    - area 
    - distanceFromCityCenter
    - photoURL

}
class Home {
    - numberOfbedrooms
    - numberOfbathrooms
    - numberOfParkingSpace
    - availableEquipment
}
class Land{

}
class Apartment{

}
class House{
    - basement
    - inhabitableLoft
    - sunExposure
}
class Announcement{
    - state   
}
class Agency{
    - id 
    - designation
    - phoneNumber
    - email
}
class Visit{

}
class Commission {
    -type
    -value
}

class Prediction {
    -value
}

class Order {

}
class Address{
    -street 
    -city 
    -state 
    -zipcode
}
class Role{
    -id
    -description
}
class Deal{
    - dealType
}
class Sale{
    - propertyPrice
}
class Rent{
    - propertyRent
    - contractDuration
}
'-------------------connections------------------
'Property Owner
PO "1" -- "1..*" Announcement : request >
'Announcement
Announcement "1" -- "1" Property : has >
Announcement "1" -- "1" Agent : send to >

'Agency
Agency "1" -- "1..*" Agent : has >
Agency "1" -- "1" AM : has > 
Agency "1" -- "1" Address : has >

'System Administrator
SA "1" -- "*" Employee : register >
SA "1" -- "*" Agency : register >

'Agent
Commission "1" -- "1" Announcement : has <
Agent "1" -- "1..*" Commission : set >
Agent "1" -- "1..*" Visit : confirm >
Agent "1" -- "*" Announcement : publishes >
Agent "1" -- "*" Prediction : makes >
Agent "1" -- "*" Order : send to  <


'Employee
Employee "1" -- "*" Agent : can be >
Employee "1" -- "*" AM : can be  >
Employee "1" -- "*" NM : can be >
Employee "1" -- "*" Role : has a >


'Person
Person "1" -- "*" PO : can be >
Person "1" -- "1" Client : can be >
Person "1" -- "1,0" Address : has >
'Agency Manager
AM "1" -- "1" Agency : manage >

'Network Manager
NM "1" -- "1..*" Agency : manage >

'Client
Client "1" -- "1" Visit : schedule >
Client "1" -- "*" Announcement : see >
Client "1" -- "1..*" Order : request >

'Property
Property "1" -- "*" Visit : has >
Property "1" -- "1" Address : has >

'Visit
Visit "1" -- "1" Prediction : has >

'Announcement
Announcement "1" -- "1" Order : has <
Property "1" -- "1" Deal : has >

'Deal
Deal *-- Sale 
Deal *-- Rent
'--------------------heritage--------------------
.Property <|-- .Land : is a 
.Property <|-- .Home : is a
.Home <|-- .Apartment : is a
.Home <|-- .House : is a

.Person <|-- .Employee : is a
.Person <|-- .SA

@enduml