@startuml
'skinparam monochrome true
skinparam packageStyle rectangle
skinparam shadowing false
'skinparam linetype ortho
'left to right direction
'skinparam classAttributeIconSize 0
hide circle
hide methods
'---------File styling---------
skinparam class {
    BackgroundColor PeachPuff
    ArrowColor RoyalBlue
    BorderColor RoyalBlue
}
'------------|Actors|----------------
class Announcement{
    - id 
    - state   
    - date
}

class Property{
    - type
    - area
    - distanceFromCityCenter
    - photoURL

}

class Home {
    - numberOfbedrooms
    - numberOfbathrooms
    - numberOfParkingSpace
    - availableEquipment
}

class Land{

}

class Apartment{

}

class House{
    - basement
    - inhabitableLoft
    - sunExposure
}

class Deal{
    - dealType
}

class Sale{
    - propertyPrice
}

class Rent{
    - propertyRent
    - contractDuration
}

class "Network Manager" as NM {

}

class Order {
    - requestPrice
    - date
}

class Agency{
    - id
    - designation
    - phoneNumber
    - email
}

class Agent{

}

class Address{
    -street
    -city
    -state
    -zipcode
}
'-------------------connections------------------

'Announcement
Announcement "1" -- "1" Property : has a >
Announcement "1" -- "1" Agent : send to >
Announcement "1" -- "1" Order : has <
Property "1" -- "1" Deal : has >

'Agency
Agency "1" -- "1..*" Agent : has >
Agency "1" -- "1" Address : has >

'Agent
Commission "1" -- "1" Announcement : has <
Agent "1" -- "1..*" Commission : set >
Agent "1" -- "*" Announcement : publishes >
Agent "1" -- "*" Order : send to  <

'Network Manager
NM "1" -- "1..*" Agency : manage >

'Property
Property "1" -- "1" Address : has >

'Deal
Deal *-- Sale
Deal *-- Rent
'--------------------heritage--------------------
.Property <|-- .Land : is a
.Property <|-- .Home : is a
.Home <|-- .Apartment : is a
.Home <|-- .House : is a

@enduml